<svg width="24" height="22" viewBox="0 0 24 22" fill="none" xmlns="http://www.w3.org/2000/svg">
<path d="M22.58 6.35L12.475 0.897C12.178 0.737 11.821 0.737 11.525 0.897L1.42499 6.35C0.938988 6.614 0.757988 7.22 1.01999 7.706C1.19999 8.041 1.54499 8.231 1.89999 8.231C2.05999 8.231 2.22399 8.193 2.37499 8.111L3.10899 7.715L4.69899 18.965C4.91499 20.179 6.00899 21.027 7.35899 21.027H16.641C17.991 21.027 19.085 20.179 19.303 18.939L20.891 7.714L21.628 8.112C22.113 8.375 22.72 8.194 22.982 7.708C23.245 7.222 23.062 6.615 22.578 6.353L22.58 6.35ZM12 14.435C10.205 14.435 8.74999 12.98 8.74999 11.185C8.74999 9.39 10.205 7.935 12 7.935C13.795 7.935 15.25 9.39 15.25 11.185C15.25 12.98 13.795 14.435 12 14.435Z" fill="white"/>
</svg>
