<svg width="20" height="21" viewBox="0 0 20 21" fill="none" xmlns="http://www.w3.org/2000/svg">
<path d="M19.697 15.468C19.677 15.452 17.557 13.828 17.594 9.438C17.614 6.906 16.782 4.656 15.247 3.103C13.872 1.71 12.01 0.94 10.005 0.93H9.99201C7.98801 0.94 6.12601 1.71 4.75001 3.104C3.21601 4.657 2.38201 6.906 2.40401 9.438C2.44101 13.768 0.384005 15.405 0.302005 15.468C0.0420053 15.661 -0.0639948 15.998 0.0370052 16.306C0.139005 16.614 0.427005 16.821 0.749005 16.821H5.66901C5.77101 19.131 7.66601 20.981 9.99901 20.981C12.332 20.981 14.225 19.131 14.326 16.821H19.248C19.57 16.821 19.858 16.615 19.958 16.307C20.061 16 19.955 15.662 19.695 15.469L19.697 15.468ZM10 19.478C8.49501 19.478 7.27001 18.301 7.17201 16.82H12.828C12.728 18.3 11.505 19.48 10 19.48V19.478ZM2.38001 15.32C3.12001 14.188 3.92801 12.292 3.90401 9.424C3.88601 7.264 4.54801 5.442 5.81701 4.157C6.91001 3.05 8.39701 2.437 10 2.43C11.603 2.438 13.087 3.05 14.18 4.158C15.45 5.443 16.113 7.264 16.095 9.425C16.071 12.293 16.88 14.19 17.62 15.321H2.38001V15.32Z" fill="white"/>
</svg>
