<svg width="22" height="22" viewBox="0 0 22 22" fill="none" xmlns="http://www.w3.org/2000/svg">
<path d="M-37.9 17C-38 16.9 -38 16.9 -38 16.8C-37.9 16.8 -37.9 16.9 -37.9 17ZM18 1.20001H16.7V0.900006C16.7 0.500006 16.4 0.100006 15.9 0.100006C15.5 0.100006 15.1 0.400006 15.1 0.900006V1.20001H7.7V0.900006C7.7 0.500006 7.4 0.100006 6.9 0.100006C6.5 0.100006 6.1 0.400006 6.1 0.900006V1.20001H4.8C3.4 1.20001 2.3 2.30001 2.3 3.70001V16.8C2.3 18.2 3.4 19.3 4.8 19.3H7.7C8.1 19.3 8.5 19 8.5 18.5C8.5 18.1 8.2 17.7 7.7 17.7H4.8C4.2 17.7 3.8 17.2 3.8 16.7V6.90001C3.8 6.60001 4.2 6.20001 4.8 6.20001H18C18.6 6.20001 19 6.60001 19 6.90001V8.70001C19 9.10001 19.3 9.50001 19.8 9.50001C20.2 9.50001 20.6 9.20001 20.6 8.70001V3.70001C20.5 2.30001 19.4 1.20001 18 1.20001V1.20001ZM19 4.90001C18.7 4.80001 18.3 4.70001 18 4.70001H4.8C4.4 4.70001 4.1 4.80001 3.8 4.90001V3.70001C3.8 3.10001 4.3 2.70001 4.8 2.70001H6.1V3.20001C6.1 3.60001 6.4 4.00001 6.9 4.00001C7.3 4.00001 7.7 3.70001 7.7 3.20001V2.70001H15.2V3.20001C15.2 3.60001 15.5 4.00001 16 4.00001C16.4 4.00001 16.8 3.70001 16.8 3.20001V2.70001H18C18.6 2.70001 19 3.20001 19 3.70001V4.90001Z" fill="white"/>
<path d="M15.5 9.40001C12.1 9.40001 9.3 12.2 9.3 15.6C9.3 19 12.1 21.8 15.5 21.8C18.9 21.8 21.7 19 21.7 15.6C21.7 12.2 18.9 9.40001 15.5 9.40001V9.40001ZM15.5 20.4C12.9 20.4 10.8 18.3 10.8 15.7C10.8 13.1 12.9 11 15.5 11C18.1 11 20.2 13.1 20.2 15.7C20.2 18.2 18.1 20.4 15.5 20.4Z" fill="white"/>
<path d="M18.9 17.7C18.8 17.9 18.5 18.1 18.3 18.1C18.2 18.1 18 18.1 17.9 18L14.8 16V13C14.8 12.6 15.1 12.2 15.6 12.2C16 12.2 16.4 12.5 16.4 13V15.2L18.8 16.7C19 16.9 19.1 17.3 18.9 17.7V17.7Z" fill="white"/>
</svg>
