<svg width="22" height="22" viewBox="0 0 22 22" fill="none" xmlns="http://www.w3.org/2000/svg">
<path d="M11 7.20999C8.91 7.20999 7.21 8.90999 7.21 11C7.21 13.09 8.91 14.79 11 14.79C13.09 14.79 14.79 13.09 14.79 11C14.79 8.90999 13.09 7.20999 11 7.20999ZM11 13.29C9.738 13.29 8.71 12.264 8.71 11C8.71 9.73599 9.74 8.70999 11 8.70999C12.26 8.70999 13.29 9.73599 13.29 11C13.29 12.264 12.262 13.29 11 13.29V13.29Z" fill="white"/>
<path d="M11.36 21.375H10.638C9.455 21.375 8.484 20.487 8.376 19.311L8.362 19.164C8.337 18.877 8.155 18.631 7.89 18.52C7.604 18.4 7.308 18.455 7.092 18.635L6.976 18.732C6.108 19.457 4.723 19.395 3.916 18.592L3.406 18.082C2.57 17.242 2.51 15.928 3.266 15.022L3.364 14.904C3.55 14.682 3.594 14.381 3.486 14.117C3.376 13.845 3.128 13.663 2.84 13.637L2.69 13.623C1.51 13.516 0.623001 12.543 0.623001 11.361V10.639C0.623001 9.456 1.511 8.485 2.687 8.377L2.843 8.363C3.128 8.338 3.373 8.156 3.485 7.89C3.595 7.62 3.55 7.317 3.365 7.095L3.271 6.979C2.514 6.071 2.573 4.756 3.408 3.919L3.92 3.407C4.724 2.603 6.108 2.542 6.98 3.267L7.096 3.365C7.314 3.549 7.624 3.595 7.886 3.487C8.156 3.375 8.338 3.129 8.363 2.844L8.377 2.691C8.484 1.511 9.457 0.625 10.639 0.625H11.361C12.544 0.625 13.515 1.513 13.623 2.689L13.637 2.845C13.662 3.13 13.843 3.375 14.109 3.485C14.386 3.602 14.689 3.547 14.903 3.368L15.023 3.266C15.89 2.543 17.277 2.604 18.083 3.406L18.593 3.918C19.429 4.756 19.489 6.071 18.733 6.978L18.633 7.096C18.445 7.316 18.399 7.618 18.51 7.884C18.622 8.154 18.87 8.334 19.156 8.362L19.308 8.376C20.488 8.483 21.375 9.456 21.375 10.638V11.361C21.375 12.544 20.487 13.515 19.311 13.623L19.156 13.637C18.872 13.661 18.626 13.842 18.516 14.107C18.403 14.379 18.449 14.681 18.633 14.902L18.733 15.022C19.489 15.927 19.429 17.242 18.593 18.082L18.083 18.592C17.276 19.396 15.893 19.456 15.023 18.732L14.908 18.636C14.691 18.453 14.378 18.406 14.118 18.514C13.845 18.628 13.663 18.874 13.638 19.16L13.624 19.31C13.517 20.483 12.544 21.37 11.362 21.37L11.36 21.375ZM7.587 16.955C7.887 16.955 8.18 17.015 8.457 17.13C9.247 17.458 9.781 18.184 9.857 19.026L9.871 19.173C9.908 19.573 10.238 19.873 10.641 19.873H11.363C11.763 19.873 12.093 19.573 12.131 19.173L12.145 19.025C12.221 18.183 12.755 17.458 13.537 17.133C14.33 16.803 15.233 16.951 15.87 17.483L15.983 17.577C16.161 17.725 16.349 17.757 16.476 17.757C16.682 17.757 16.876 17.677 17.022 17.53L17.532 17.02C17.816 16.736 17.837 16.29 17.58 15.982L17.48 15.862C16.938 15.212 16.803 14.322 17.128 13.539C17.454 12.749 18.18 12.219 19.022 12.142L19.177 12.128C19.574 12.091 19.877 11.761 19.877 11.358V10.636C19.877 10.236 19.574 9.906 19.175 9.868L19.023 9.854C18.177 9.776 17.453 9.244 17.128 8.461C16.802 7.673 16.938 6.783 17.481 6.134L17.581 6.016C17.838 5.706 17.817 5.26 17.533 4.976L17.023 4.466C16.877 4.319 16.683 4.239 16.477 4.239C16.35 4.239 16.162 4.271 15.985 4.419L15.865 4.519C15.231 5.047 14.315 5.189 13.543 4.873C12.755 4.546 12.223 3.821 12.146 2.977L12.132 2.822C12.097 2.425 11.767 2.122 11.365 2.122H10.642C10.242 2.122 9.912 2.425 9.874 2.824L9.86 2.976C9.784 3.819 9.252 4.544 8.47 4.869C7.683 5.195 6.777 5.052 6.14 4.519L6.022 4.423C5.842 4.273 5.654 4.243 5.527 4.243C5.321 4.243 5.127 4.323 4.981 4.469L4.469 4.979C4.187 5.263 4.166 5.709 4.423 6.017L4.523 6.135C5.063 6.788 5.2 7.679 4.875 8.46C4.548 9.248 3.823 9.78 2.98 9.857L2.824 9.871C2.427 9.908 2.124 10.238 2.124 10.641V11.363C2.124 11.763 2.427 12.093 2.826 12.131L2.976 12.145C3.824 12.223 4.549 12.757 4.873 13.541C5.198 14.327 5.063 15.216 4.52 15.866L4.424 15.981C4.164 16.291 4.186 16.737 4.47 17.021L4.98 17.531C5.126 17.678 5.32 17.758 5.526 17.758C5.653 17.758 5.841 17.728 6.018 17.578L6.134 17.482C6.54 17.146 7.057 16.958 7.587 16.958V16.955Z" fill="white"/>
</svg>
