<svg width="22" height="21" viewBox="0 0 22 21" fill="none" xmlns="http://www.w3.org/2000/svg">
<path d="M18 8.5V6.8H13.6V13.2H15.3V11.2H17.3V9.5H15.3V8.5H18V8.5ZM10.7 6.8H12.4V13.2H10.7V6.8ZM7.1 8.4C7.5 8.4 8 8.6 8.3 8.9L9.5 7.9C8.9 7.2 8 6.8 7.1 6.8C5.3 6.8 3.9 8.2 3.9 10C3.9 11.8 5.3 13.2 7.1 13.2C8.1 13.2 8.9 12.8 9.5 12.1V9.6H6.7V10.8H7.9V11.4C7.7 11.5 7.4 11.6 7.1 11.6C6.2 11.6 5.5 10.9 5.5 10C5.5 9.2 6.2 8.4 7.1 8.4V8.4Z" fill="white"/>
<path d="M19.5 0.0200043H2.5C1.26 0.0200043 0.25 1.027 0.25 2.267V17.774C0.25 19.012 1.26 20.02 2.5 20.02H19.5C20.74 20.02 21.75 19.012 21.75 17.774V2.267C21.75 1.027 20.74 0.0200043 19.5 0.0200043V0.0200043ZM20.25 17.774C20.25 18.184 19.914 18.52 19.5 18.52H2.5C2.086 18.52 1.75 18.184 1.75 17.774V2.267C1.75 1.855 2.086 1.52 2.5 1.52H19.5C19.914 1.52 20.25 1.855 20.25 2.267V17.774Z" fill="white"/>
</svg>
